# xmcd
#
# Track frame offsets: 
#        150
#        16868
#        30742
#        46063
#        59227
#        73319
#        89782
#        102956
#        118743
#        134349
#        147839
#        165441
#        179490
#        193842
#        208643
#
# Disc length: 3110 seconds
#
# Revision: 1
# Processed by: cddbd v1.5.2PL0 Copyright (c) Steve Scherf et al.
# Submitted via: ExactAudioCopyFreeDBPlugin 1.0
#
DISCID=e40c240f
DTITLE=Linda Feller - Wenn überhaupt...
DYEAR=2001
DGENRE=Country
TTITLE0=Tanzen mit dem Wind
TTITLE1=Na gut
TTITLE2=Kann ein ja für immer sein
TTITLE3=Wenn überhaupt ...
TTITLE4=Mit dir wird alles gut
TTITLE5=Liebe ist ein starkes Gefühl
TTITLE6=Sitzfindig
TTITLE7=Tränen verraten dich (Neuaufnahme)
TTITLE8=Hör mir doch einmal zu
TTITLE9=Leben mit dir
TTITLE10=Heilende Hände
TTITLE11=Sag nicht (ich weis nicht)
TTITLE12=Apple Jack (Neuaufnahme)
TTITLE13=Küss mich nur einmal wach
TTITLE14=Hit-Medley
EXTD=YEAR: 2001
EXTT0=
EXTT1=
EXTT2=
EXTT3=
EXTT4=
EXTT5=
EXTT6=
EXTT7=
EXTT8=
EXTT9=
EXTT10=
EXTT11=
EXTT12=
EXTT13=
EXTT14=
PLAYORDER=
